<?xml version="1.0" encoding="UTF-8" standalone="no"?>
<svg
   width="130px"
   height="60px"
   viewBox="0 0 100 50"
   version="1.1"
   id="svg1"
   sodipodi:docname="fish_baby.svg"
   inkscape:version="1.4.2 (f4327f4, 2025-05-13)"
   xmlns:inkscape="http://www.inkscape.org/namespaces/inkscape"
   xmlns:sodipodi="http://sodipodi.sourceforge.net/DTD/sodipodi-0.dtd"
   xmlns="http://www.w3.org/2000/svg"
   xmlns:svg="http://www.w3.org/2000/svg">
  <defs
     id="defs1">
    <linearGradient
       id="swatch9"
       inkscape:swatch="solid">
      <stop
         style="stop-color:#ff7a00;stop-opacity:1;"
         offset="0"
         id="stop9" />
    </linearGradient>
    <linearGradient
       id="swatch7">
      <stop
         style="stop-color:#ff7a00;stop-opacity:1;"
         offset="0"
         id="stop7" />
    </linearGradient>
    <inkscape:path-effect
       effect="skeletal"
       id="path-effect1"
       is_visible="true"
       lpeversion="1"
       pattern="M 0,14.513788 C 0,6.5021771 6.5021771,0 14.513788,0 c 8.011611,0 14.513788,6.5021771 14.513788,14.513788 0,8.011611 -6.502177,14.513788 -14.513788,14.513788 C 6.5021771,29.027576 0,22.525399 0,14.513788 Z"
       copytype="single_stretched"
       prop_scale="1"
       scale_y_rel="false"
       spacing="0"
       normal_offset="0"
       tang_offset="0"
       prop_units="false"
       vertical_pattern="false"
       hide_knot="false"
       fuse_tolerance="0" />
  </defs>
  <sodipodi:namedview
     id="namedview1"
     pagecolor="#ffffff"
     bordercolor="#000000"
     borderopacity="0.25"
     inkscape:showpageshadow="2"
     inkscape:pageopacity="0.0"
     inkscape:pagecheckerboard="0"
     inkscape:deskcolor="#d1d1d1"
     showgrid="false"
     inkscape:zoom="5.6568543"
     inkscape:cx="64.435105"
     inkscape:cy="1.6793786"
     inkscape:window-width="1920"
     inkscape:window-height="1094"
     inkscape:window-x="-11"
     inkscape:window-y="-11"
     inkscape:window-maximized="1"
     inkscape:current-layer="svg1"
     showguides="false" />
  <!-- Main body group -->
  <!-- Tail -->
  <path
     id="fish-tail"
     d="M 73.254042,23.391512 C 82.085999,12.337739 94.703079,2.8630777 101.01162,6.0212976 c -3.785126,12.6328834 -3.785126,22.1075424 0,34.7404244 -6.308541,3.158219 -18.925621,-6.316441 -27.757578,-17.37021 z"
     fill="#ff7a00"
     style="stroke-width:1.41153" />
  <g
     id="fish-body"
     transform="matrix(1.4798989,0,0,1.4798989,-36.264359,-12.914019)">
    <!-- Main torso -->
    <path
       id="body"
       d="m 25.3429,23.90748 c 3.998798,-7.706563 11.943907,-13.361014 20.683008,-13.9609038 9.69769,-0.8642198 19.721478,2.2977538 27.152429,8.5849228 1.617985,1.665944 3.473607,3.364602 4.014874,5.718316 -2.879776,6.165486 -9.310865,9.578981 -15.543481,11.486468 -6.703952,2.17471 -14.066379,3.258523 -20.923811,1.109072 C 34.063526,34.890486 28.589904,29.971612 25.3429,23.90748 Z"
       fill="#ff7a00"
       style="stroke-width:0.965743" />
    <path
       id="body-light"
       d="m 25.352281,23.904911 c 3.119815,-5.955687 7.654508,-9.503928 11.850052,-11.550064 3.153995,9.496489 3.247385,14.447452 -0.08403,23.067614 0,0 -7.612239,-3.10375 -11.77482,-11.51535 z"
       fill="#ffa95a"
       style="fill:#ffa95a;fill-opacity:1;stroke-width:0.868144"
       sodipodi:nodetypes="ccccc" />
    <!-- Eye -->
    <ellipse
       id="eye-white"
       cx="33.722363"
       cy="20.216526"
       fill="#ffffff"
       style="stroke-width:1.4341"
       rx="2.8056901"
       ry="2.8681934" />
    <!-- Pupil -->
    <circle
       id="pupil"
       cx="32.850765"
       cy="20.216526"
       fill="#000000"
       r="1.4340967"
       style="stroke-width:1.4341" />
    <!-- Gills -->
    <path
       id="gill-1"
       d="m 41.77,17.056692 q 5.111384,6.389233 0,12.778467"
       fill="none"
       stroke="#e66e00"
       stroke-width="0.958385"
       stroke-linecap="round"
       style="stroke-width:0.791667;stroke-dasharray:none" />
    <path
       id="gill-2"
       d="m 43.909141,17.056692 q 5.111374,6.389233 0,12.778467"
       fill="none"
       stroke="#e66e00"
       stroke-width="0.958385"
       stroke-linecap="round"
       style="stroke-width:0.791667;stroke-dasharray:none" />
    <path
       id="mouth"
       d="m 30.429131,26.512702 q -0.82684,1.006128 -2.194964,1.278074"
       fill="none"
       stroke="#e66e00"
       stroke-width="0.0995893"
       stroke-linecap="round"
       style="stroke-width:0.551667;stroke-linecap:round;stroke-dasharray:none" />
    <path
       id="gill-3"
       d="m 46.131667,17.056692 q 5.111387,6.389233 0,12.778467"
       fill="none"
       stroke="#e66e00"
       stroke-width="0.958385"
       stroke-linecap="round"
       style="stroke-width:0.791667;stroke-dasharray:none" />
    <!-- Pectoral fin -->
    <path
       id="pectoral-fin"
       d="m 50.342351,32.240833 c 1.383642,1.739452 2.549092,3.717905 2.77134,5.870475 0.110643,1.18282 -0.123287,2.501868 -1.123238,3.3613 -0.828613,0.728337 -2.134205,0.83386 -3.190532,0.478619 -0.430653,-0.09079 -0.770312,-0.319176 -0.905376,-0.70671 -0.836993,-1.542862 -0.651482,-3.352043 -0.114894,-4.947998 0.522119,-1.484097 1.338711,-2.929273 2.5627,-4.055686 z"
       fill="#e66e00"
       style="stroke-width:1.00638" />
  </g>
</svg>
